<?xml version="1.0" encoding="UTF-8" ?>
<!DOCTYPE svg PUBLIC "-//W3C//DTD SVG 1.1//EN" "http://www.w3.org/Graphics/SVG/1.1/DTD/svg11.dtd">
<svg width="659pt" height="186pt" viewBox="0 0 659 186" version="1.1" xmlns="http://www.w3.org/2000/svg">
<g id="#01713dff">
<path fill="#01713d" opacity="1.00" d=" M 0.00 0.00 L 659.00 0.00 L 659.00 186.00 L 0.00 186.00 L 0.00 0.00 M 72.04 28.95 C 69.36 33.93 68.90 39.69 67.25 45.03 C 65.87 50.63 63.59 56.11 63.67 61.97 C 68.89 61.82 73.73 59.55 78.94 59.38 C 84.75 59.26 90.22 56.97 96.02 56.73 C 101.10 56.58 105.86 54.49 110.92 54.27 C 115.42 54.06 119.81 53.11 124.20 52.21 C 127.64 51.45 131.37 51.97 134.63 50.49 C 136.12 47.58 134.30 44.52 133.70 41.63 C 132.39 37.25 133.46 31.72 129.58 28.45 C 127.68 26.30 124.68 26.41 122.07 26.41 C 107.69 26.52 93.32 26.48 78.94 26.42 C 76.46 26.40 73.44 26.53 72.04 28.95 M 440.25 52.14 C 439.05 63.72 439.89 75.38 439.64 87.00 C 439.93 99.89 438.97 112.83 440.20 125.68 C 445.08 125.76 449.97 125.78 454.86 125.55 C 455.38 121.71 455.27 117.84 455.56 113.98 C 455.68 111.38 457.83 109.59 459.20 107.57 C 463.85 112.81 466.25 119.48 469.42 125.62 C 474.96 125.78 480.50 125.80 486.05 125.61 C 482.24 117.15 477.75 109.00 472.71 101.21 C 471.38 99.03 469.62 96.03 471.57 93.66 C 475.77 88.22 482.25 84.35 484.37 77.47 C 478.79 77.36 473.13 76.74 467.60 77.62 C 463.61 81.86 461.12 87.67 455.79 90.66 C 454.90 78.00 455.58 65.28 455.42 52.59 C 450.40 51.88 445.30 51.45 440.25 52.14 M 240.63 58.39 C 237.84 65.14 237.16 72.57 234.03 79.20 C 229.03 90.02 226.37 101.70 221.96 112.74 C 220.14 116.84 219.61 121.32 219.58 125.76 C 224.59 125.77 229.59 125.75 234.60 125.68 C 235.50 121.51 236.63 117.33 238.71 113.57 C 242.68 112.36 246.90 112.87 251.00 112.75 C 255.15 112.89 259.42 112.32 263.49 113.42 C 266.58 116.71 265.84 121.89 268.71 125.33 C 273.77 126.23 278.96 125.65 284.08 125.59 C 282.54 118.33 279.23 111.67 276.50 104.83 C 272.00 90.85 267.28 76.93 261.93 63.25 C 260.69 60.35 260.32 56.49 257.35 54.76 C 253.33 54.08 249.20 54.27 245.14 54.49 C 242.85 54.38 241.38 56.49 240.63 58.39 M 146.89 58.20 C 141.85 59.67 136.49 59.10 131.46 60.60 C 125.83 62.35 119.80 61.69 114.15 63.37 C 109.05 64.79 103.64 64.17 98.57 65.76 C 93.24 67.45 87.50 66.72 82.16 68.39 C 77.65 69.72 72.87 69.43 68.33 70.59 C 62.19 72.27 55.71 72.10 49.63 74.08 C 45.73 75.23 39.25 73.74 38.46 79.23 C 36.68 88.78 31.94 97.88 32.84 107.80 C 38.26 108.81 43.57 110.65 49.14 110.60 C 54.62 110.60 60.14 110.51 65.52 111.72 C 72.92 113.38 80.55 113.09 88.09 113.28 C 92.84 113.37 97.29 115.40 102.03 115.56 C 107.57 115.83 113.16 115.31 118.64 116.37 C 127.97 118.32 137.55 118.16 147.03 118.36 C 151.78 118.36 156.17 120.56 160.90 120.69 C 165.27 120.93 169.65 120.80 174.02 120.70 C 173.78 115.97 171.96 111.58 170.71 107.08 C 169.06 101.67 168.75 95.89 166.33 90.72 C 161.76 80.03 161.55 68.15 157.46 57.33 C 153.92 57.18 150.32 57.19 146.89 58.20 M 290.38 85.20 C 286.17 93.11 285.11 102.87 288.55 111.27 C 290.21 116.80 295.01 120.98 300.34 122.88 C 307.64 124.61 315.26 123.41 321.97 120.18 C 322.12 124.63 319.90 128.95 315.83 130.93 C 309.14 135.03 301.00 131.78 294.73 128.44 C 293.67 132.19 291.65 135.84 291.81 139.83 C 292.64 143.32 296.85 143.67 299.73 144.40 C 308.72 146.82 318.59 146.02 326.92 141.79 C 332.41 139.13 335.03 132.82 335.32 127.02 C 335.52 121.91 336.62 116.88 336.49 111.75 C 336.30 100.31 336.44 88.88 336.43 77.44 C 330.53 77.50 324.02 75.92 318.76 79.38 C 314.04 76.42 308.32 76.03 302.92 76.71 C 297.55 77.00 293.34 81.05 290.38 85.20 M 347.77 77.29 C 347.35 85.52 347.62 93.76 347.57 102.00 C 347.62 109.89 347.32 117.80 347.90 125.68 C 352.28 125.74 356.66 125.76 361.05 125.69 C 361.65 119.46 361.44 113.19 361.39 106.93 C 361.26 102.12 362.49 96.62 366.61 93.66 C 369.55 92.13 373.01 92.61 376.21 92.27 C 376.38 87.01 376.39 81.74 376.18 76.48 C 372.09 76.43 367.88 77.05 364.69 79.84 C 359.85 75.97 353.46 77.43 347.77 77.29 M 394.98 78.09 C 391.39 80.37 388.46 83.53 385.77 86.79 C 383.42 89.67 381.31 93.07 381.38 96.93 C 381.35 101.89 380.66 107.24 383.12 111.78 C 386.06 118.18 391.87 122.99 398.43 125.36 C 402.56 126.35 406.88 126.11 411.09 125.98 C 418.16 125.77 424.71 121.51 428.56 115.70 C 432.17 108.92 434.07 100.71 431.20 93.29 C 429.76 86.59 424.24 81.98 418.97 78.14 C 415.60 76.49 411.65 76.74 407.99 76.53 C 403.66 76.65 399.03 76.28 394.98 78.09 M 488.74 95.95 C 488.57 101.17 488.33 106.50 489.48 111.62 C 491.17 116.57 494.46 121.13 499.05 123.76 C 503.49 126.43 508.97 126.40 513.95 125.76 C 517.32 125.26 520.65 121.31 523.95 123.84 C 527.94 126.70 533.01 125.60 537.59 125.68 C 537.69 109.56 537.61 93.45 537.64 77.33 C 532.08 77.58 525.81 75.82 520.96 79.34 C 514.89 75.68 507.18 75.83 500.57 77.67 C 494.65 81.91 488.70 88.19 488.74 95.95 M 557.04 77.84 C 552.03 80.74 546.90 85.69 547.73 92.03 C 547.22 96.97 551.13 100.54 554.58 103.39 C 558.20 106.42 562.99 107.19 567.26 108.89 C 568.38 110.02 568.66 111.69 569.33 113.10 C 566.89 113.25 564.44 113.49 562.02 113.20 C 558.90 112.68 556.17 110.89 553.06 110.39 C 550.10 112.72 545.10 118.43 549.44 121.54 C 552.92 124.43 557.37 126.11 561.92 126.01 C 568.26 126.09 575.95 126.97 580.43 121.43 C 584.61 117.42 584.02 111.29 583.72 106.03 C 583.73 102.94 580.96 100.99 578.81 99.21 C 574.37 95.66 568.25 95.53 563.69 92.24 C 563.33 90.64 563.25 89.00 563.10 87.37 C 565.14 87.52 567.27 87.32 569.25 87.95 C 571.87 89.71 574.23 91.93 577.24 93.05 C 579.45 89.28 581.64 85.35 581.88 80.87 C 574.35 76.97 565.23 74.87 557.04 77.84 M 597.79 79.75 C 591.94 84.70 588.26 92.24 588.74 99.98 C 588.01 107.68 591.05 115.26 596.08 120.99 C 601.16 125.93 608.92 127.14 615.63 125.48 C 618.66 124.30 621.44 122.58 624.30 121.03 C 624.63 122.59 624.99 124.15 625.34 125.72 C 629.43 125.73 633.51 125.73 637.60 125.70 C 637.68 109.58 637.59 93.45 637.64 77.33 C 632.27 76.90 626.83 77.00 621.96 79.54 C 618.35 78.44 614.97 76.31 611.06 76.50 C 606.54 76.64 601.29 76.38 597.79 79.75 M 46.62 121.31 C 42.98 132.60 42.14 144.62 37.68 155.67 C 35.80 160.11 35.13 164.91 33.56 169.44 C 35.45 170.73 37.55 171.84 39.92 171.59 C 51.74 171.45 63.56 171.65 75.38 171.41 C 77.96 167.37 79.10 162.74 79.42 158.00 C 80.38 154.14 80.94 148.70 85.40 147.36 C 91.49 145.92 97.81 146.88 104.00 146.60 C 109.17 146.81 115.37 145.52 119.47 149.51 C 123.22 155.51 123.18 162.95 125.84 169.42 C 139.38 169.87 152.95 169.77 166.50 169.50 C 166.54 158.40 161.98 148.06 159.06 137.54 C 158.21 134.51 158.00 130.82 155.13 128.89 C 148.56 127.76 141.77 129.30 135.24 127.74 C 125.69 125.14 115.71 126.55 105.97 125.57 C 102.43 125.16 99.04 123.91 95.48 123.57 C 89.67 123.05 83.78 123.88 77.99 122.95 C 67.72 120.78 57.06 120.22 46.62 121.31 Z" />
<path fill="#01713d" opacity="1.00" d=" M 248.61 80.01 C 249.80 79.75 250.99 79.50 252.19 79.26 C 254.42 85.45 256.49 91.69 258.10 98.08 C 253.76 98.41 249.40 98.40 245.07 98.06 C 245.21 91.85 247.66 86.08 248.61 80.01 Z" />
<path fill="#01713d" opacity="1.00" d=" M 309.34 90.27 C 312.26 89.84 315.89 89.53 318.05 91.97 C 320.16 94.10 322.15 96.83 322.28 99.91 C 321.63 103.90 319.50 107.82 316.07 110.06 C 309.56 113.03 300.78 107.34 301.83 100.00 C 301.24 95.33 305.40 91.77 309.34 90.27 Z" />
<path fill="#01713d" opacity="1.00" d=" M 402.52 90.61 C 405.16 89.76 408.05 89.93 410.76 90.36 C 419.60 93.73 419.65 108.17 411.21 112.09 C 406.31 114.37 400.82 110.89 398.16 106.79 C 394.76 101.35 397.02 93.73 402.52 90.61 Z" />
<path fill="#01713d" opacity="1.00" d=" M 507.83 90.87 C 511.43 89.64 515.56 89.81 519.23 90.78 C 521.87 93.04 522.59 96.64 522.60 99.96 C 522.59 103.17 522.91 106.96 520.33 109.36 C 517.43 112.92 511.56 114.38 508.00 110.96 C 503.37 107.60 503.05 101.20 504.27 96.08 C 504.64 93.93 506.03 92.08 507.83 90.87 Z" />
<path fill="#01713d" opacity="1.00" d=" M 609.64 90.74 C 612.46 89.64 615.70 89.89 618.63 90.46 C 626.60 93.89 626.81 106.21 620.08 111.01 C 615.06 115.21 607.41 111.56 604.63 106.48 C 603.98 103.18 603.99 99.71 604.59 96.40 C 605.58 94.04 607.52 92.14 609.64 90.74 Z" />
</g>
<g id="#fafefdff">
<path fill="#fafefd" opacity="1.00" d=" M 72.04 28.95 C 73.44 26.53 76.46 26.40 78.94 26.42 C 93.32 26.48 107.69 26.52 122.07 26.41 C 124.68 26.41 127.68 26.30 129.58 28.45 C 133.46 31.72 132.39 37.25 133.70 41.63 C 134.30 44.52 136.12 47.58 134.63 50.49 C 131.37 51.97 127.64 51.45 124.20 52.21 C 119.81 53.11 115.42 54.06 110.92 54.27 C 105.86 54.49 101.10 56.58 96.02 56.73 C 90.22 56.97 84.75 59.26 78.94 59.38 C 73.73 59.55 68.89 61.82 63.67 61.97 C 63.59 56.11 65.87 50.63 67.25 45.03 C 68.90 39.69 69.36 33.93 72.04 28.95 Z" />
<path fill="#fafefd" opacity="1.00" d=" M 440.25 52.14 C 445.30 51.45 450.40 51.88 455.42 52.59 C 455.58 65.28 454.90 78.00 455.79 90.66 C 461.12 87.67 463.61 81.86 467.60 77.62 C 473.13 76.74 478.79 77.36 484.37 77.47 C 482.25 84.35 475.77 88.22 471.57 93.66 C 469.62 96.03 471.38 99.03 472.71 101.21 C 477.75 109.00 482.24 117.15 486.05 125.61 C 480.50 125.80 474.96 125.78 469.42 125.62 C 466.25 119.48 463.85 112.81 459.20 107.57 C 457.83 109.59 455.68 111.38 455.56 113.98 C 455.27 117.84 455.38 121.71 454.86 125.55 C 449.97 125.78 445.08 125.76 440.20 125.68 C 438.97 112.83 439.93 99.89 439.64 87.00 C 439.89 75.38 439.05 63.72 440.25 52.14 Z" />
<path fill="#fafefd" opacity="1.00" d=" M 240.63 58.39 C 241.38 56.49 242.85 54.38 245.14 54.49 C 249.20 54.27 253.33 54.08 257.35 54.76 C 260.32 56.49 260.69 60.35 261.93 63.25 C 267.28 76.93 272.00 90.85 276.50 104.83 C 279.23 111.67 282.54 118.33 284.08 125.59 C 278.96 125.65 273.77 126.23 268.71 125.33 C 265.84 121.89 266.58 116.71 263.49 113.42 C 259.42 112.32 255.15 112.89 251.00 112.75 C 246.90 112.87 242.68 112.36 238.71 113.57 C 236.63 117.33 235.50 121.51 234.60 125.68 C 229.59 125.75 224.59 125.77 219.58 125.76 C 219.61 121.32 220.14 116.84 221.96 112.74 C 226.37 101.70 229.03 90.02 234.03 79.20 C 237.16 72.57 237.84 65.14 240.63 58.39 M 248.61 80.01 C 247.66 86.08 245.21 91.85 245.07 98.06 C 249.40 98.40 253.76 98.41 258.10 98.08 C 256.49 91.69 254.42 85.45 252.19 79.26 C 250.99 79.50 249.80 79.75 248.61 80.01 Z" />
<path fill="#fafefd" opacity="1.00" d=" M 146.89 58.20 C 150.32 57.19 153.92 57.18 157.46 57.33 C 161.55 68.15 161.76 80.03 166.33 90.72 C 168.75 95.89 169.06 101.67 170.71 107.08 C 171.96 111.58 173.78 115.97 174.02 120.70 C 169.65 120.80 165.27 120.93 160.90 120.69 C 156.17 120.56 151.78 118.36 147.03 118.36 C 137.55 118.16 127.97 118.32 118.64 116.37 C 113.16 115.31 107.57 115.83 102.03 115.56 C 97.29 115.40 92.84 113.37 88.09 113.28 C 80.55 113.09 72.92 113.38 65.52 111.72 C 60.14 110.51 54.62 110.60 49.14 110.60 C 43.57 110.65 38.26 108.81 32.84 107.80 C 31.94 97.88 36.68 88.78 38.46 79.23 C 39.25 73.74 45.73 75.23 49.63 74.08 C 55.71 72.10 62.19 72.27 68.33 70.59 C 72.87 69.43 77.65 69.72 82.16 68.39 C 87.50 66.72 93.24 67.45 98.57 65.76 C 103.64 64.17 109.05 64.79 114.15 63.37 C 119.80 61.69 125.83 62.35 131.46 60.60 C 136.49 59.10 141.85 59.67 146.89 58.20 Z" />
<path fill="#fafefd" opacity="1.00" d=" M 290.38 85.20 C 293.34 81.05 297.55 77.00 302.92 76.71 C 308.32 76.03 314.04 76.42 318.76 79.38 C 324.02 75.92 330.53 77.50 336.43 77.44 C 336.44 88.88 336.30 100.31 336.49 111.75 C 336.62 116.88 335.52 121.91 335.32 127.02 C 335.03 132.82 332.41 139.13 326.92 141.79 C 318.59 146.02 308.72 146.82 299.73 144.40 C 296.85 143.67 292.64 143.32 291.81 139.83 C 291.65 135.84 293.67 132.19 294.73 128.44 C 301.00 131.78 309.14 135.03 315.83 130.93 C 319.90 128.95 322.12 124.63 321.97 120.18 C 315.26 123.41 307.64 124.61 300.34 122.88 C 295.01 120.98 290.21 116.80 288.55 111.27 C 285.11 102.87 286.17 93.11 290.38 85.20 M 309.34 90.27 C 305.40 91.77 301.24 95.33 301.83 100.00 C 300.78 107.34 309.56 113.03 316.07 110.06 C 319.50 107.82 321.63 103.90 322.28 99.91 C 322.15 96.83 320.16 94.10 318.05 91.97 C 315.89 89.53 312.26 89.84 309.34 90.27 Z" />
<path fill="#fafefd" opacity="1.00" d=" M 347.77 77.29 C 353.46 77.43 359.85 75.97 364.69 79.84 C 367.88 77.05 372.09 76.43 376.18 76.48 C 376.39 81.74 376.38 87.01 376.21 92.27 C 373.01 92.61 369.55 92.13 366.61 93.66 C 362.49 96.62 361.26 102.12 361.39 106.93 C 361.44 113.19 361.65 119.46 361.05 125.69 C 356.66 125.76 352.28 125.74 347.90 125.68 C 347.32 117.80 347.62 109.89 347.57 102.00 C 347.62 93.76 347.35 85.52 347.77 77.29 Z" />
<path fill="#fafefd" opacity="1.00" d=" M 394.98 78.09 C 399.03 76.28 403.66 76.65 407.99 76.53 C 411.65 76.74 415.60 76.49 418.97 78.14 C 424.24 81.98 429.76 86.59 431.20 93.29 C 434.07 100.71 432.17 108.92 428.56 115.70 C 424.71 121.51 418.16 125.77 411.09 125.98 C 406.88 126.11 402.56 126.35 398.43 125.36 C 391.87 122.99 386.06 118.18 383.12 111.78 C 380.66 107.24 381.35 101.89 381.38 96.93 C 381.31 93.07 383.42 89.67 385.77 86.79 C 388.46 83.53 391.39 80.37 394.98 78.09 M 402.52 90.61 C 397.02 93.73 394.76 101.35 398.16 106.79 C 400.82 110.89 406.31 114.37 411.21 112.09 C 419.65 108.17 419.60 93.73 410.76 90.36 C 408.05 89.93 405.16 89.76 402.52 90.61 Z" />
<path fill="#fafefd" opacity="1.00" d=" M 488.74 95.95 C 488.70 88.19 494.65 81.91 500.57 77.67 C 507.18 75.83 514.89 75.68 520.96 79.34 C 525.81 75.82 532.08 77.58 537.64 77.33 C 537.61 93.45 537.69 109.56 537.59 125.68 C 533.01 125.60 527.94 126.70 523.95 123.84 C 520.65 121.31 517.32 125.26 513.95 125.76 C 508.97 126.40 503.49 126.43 499.05 123.76 C 494.46 121.13 491.17 116.57 489.48 111.62 C 488.33 106.50 488.57 101.17 488.74 95.95 M 507.83 90.87 C 506.03 92.08 504.64 93.93 504.27 96.08 C 503.05 101.20 503.37 107.60 508.00 110.96 C 511.56 114.38 517.43 112.92 520.33 109.36 C 522.91 106.96 522.59 103.17 522.60 99.96 C 522.59 96.64 521.87 93.04 519.23 90.78 C 515.56 89.81 511.43 89.64 507.83 90.87 Z" />
<path fill="#fafefd" opacity="1.00" d=" M 557.04 77.84 C 565.23 74.87 574.35 76.97 581.88 80.87 C 581.64 85.35 579.45 89.28 577.24 93.05 C 574.23 91.93 571.87 89.71 569.25 87.95 C 567.27 87.32 565.14 87.52 563.10 87.37 C 563.25 89.00 563.33 90.64 563.69 92.24 C 568.25 95.53 574.37 95.66 578.81 99.21 C 580.96 100.99 583.73 102.94 583.72 106.03 C 584.02 111.29 584.61 117.42 580.43 121.43 C 575.95 126.97 568.26 126.09 561.92 126.01 C 557.37 126.11 552.92 124.43 549.44 121.54 C 545.10 118.43 550.10 112.72 553.06 110.39 C 556.17 110.89 558.90 112.68 562.02 113.20 C 564.44 113.49 566.89 113.25 569.33 113.10 C 568.66 111.69 568.38 110.02 567.26 108.89 C 562.99 107.19 558.20 106.42 554.58 103.39 C 551.13 100.54 547.22 96.97 547.73 92.03 C 546.90 85.69 552.03 80.74 557.04 77.84 Z" />
<path fill="#fafefd" opacity="1.00" d=" M 597.79 79.75 C 601.29 76.38 606.54 76.64 611.06 76.50 C 614.97 76.31 618.35 78.44 621.96 79.54 C 626.83 77.00 632.27 76.90 637.64 77.33 C 637.59 93.45 637.68 109.58 637.60 125.70 C 633.51 125.73 629.43 125.73 625.34 125.72 C 624.99 124.15 624.63 122.59 624.30 121.03 C 621.44 122.58 618.66 124.30 615.63 125.48 C 608.92 127.14 601.16 125.93 596.08 120.99 C 591.05 115.26 588.01 107.68 588.74 99.98 C 588.26 92.24 591.94 84.70 597.79 79.75 M 609.64 90.74 C 607.52 92.14 605.58 94.04 604.59 96.40 C 603.99 99.71 603.98 103.18 604.63 106.48 C 607.41 111.56 615.06 115.21 620.08 111.01 C 626.81 106.21 626.60 93.89 618.63 90.46 C 615.70 89.89 612.46 89.64 609.64 90.74 Z" />
<path fill="#fafefd" opacity="1.00" d=" M 46.62 121.31 C 57.06 120.22 67.72 120.78 77.99 122.95 C 83.78 123.88 89.67 123.05 95.48 123.57 C 99.04 123.91 102.43 125.16 105.97 125.57 C 115.71 126.55 125.69 125.14 135.24 127.74 C 141.77 129.30 148.56 127.76 155.13 128.89 C 158.00 130.82 158.21 134.51 159.06 137.54 C 161.98 148.06 166.54 158.40 166.50 169.50 C 152.95 169.77 139.38 169.87 125.84 169.42 C 123.18 162.95 123.22 155.51 119.47 149.51 C 115.37 145.52 109.17 146.81 104.00 146.60 C 97.81 146.88 91.49 145.92 85.40 147.36 C 80.94 148.70 80.38 154.14 79.42 158.00 C 79.10 162.74 77.96 167.37 75.38 171.41 C 63.56 171.65 51.74 171.45 39.92 171.59 C 37.55 171.84 35.45 170.73 33.56 169.44 C 35.13 164.91 35.80 160.11 37.68 155.67 C 42.14 144.62 42.98 132.60 46.62 121.31 Z" />
</g>
</svg>
