<?xml version="1.0" encoding="UTF-8" ?>
<!DOCTYPE svg PUBLIC "-//W3C//DTD SVG 1.1//EN" "http://www.w3.org/Graphics/SVG/1.1/DTD/svg11.dtd">
<svg width="136pt" height="152pt" viewBox="0 0 136 152" version="1.1" xmlns="http://www.w3.org/2000/svg">
<g id="#086f40ff">
<path fill="#086f40" opacity="1.00" d=" M 0.00 0.00 L 136.00 0.00 L 136.00 152.00 L 0.00 152.00 L 0.00 0.00 M 44.38 24.28 C 41.96 32.34 39.67 40.44 37.95 48.67 C 40.24 48.58 42.54 48.53 44.81 48.25 C 59.80 46.02 74.71 43.20 89.74 41.25 C 89.17 35.42 87.45 29.80 85.72 24.23 C 71.94 24.10 58.16 24.02 44.38 24.28 M 76.60 49.58 C 69.58 50.43 62.63 51.83 55.62 52.81 C 46.91 54.00 38.40 56.40 29.64 57.26 C 27.06 57.68 24.25 57.65 21.92 58.97 C 20.54 60.63 20.27 62.86 19.79 64.89 C 18.61 70.77 16.46 76.40 15.12 82.25 C 26.33 83.90 37.64 84.58 48.91 85.64 C 61.98 86.01 74.90 88.02 87.94 88.87 C 97.48 89.33 106.90 91.27 116.48 90.85 C 116.00 86.23 115.07 81.67 113.58 77.27 C 110.23 67.13 108.31 56.59 105.06 46.42 C 95.47 46.19 86.01 47.96 76.60 49.58 M 27.10 90.76 C 23.10 102.51 19.93 114.54 17.10 126.61 C 27.26 126.88 37.44 126.84 47.61 126.65 C 48.93 120.88 50.28 115.10 52.54 109.62 C 60.25 109.75 67.97 109.28 75.67 109.71 C 77.54 109.53 78.32 111.48 78.94 112.89 C 80.62 117.33 81.42 122.04 82.44 126.67 C 92.58 126.78 102.74 126.98 112.87 126.51 C 111.21 119.10 108.74 111.89 107.29 104.43 C 106.66 102.05 106.26 99.39 104.52 97.53 C 100.32 95.60 95.54 95.92 91.05 95.40 C 81.65 94.06 72.09 94.56 62.72 92.89 C 50.85 92.23 39.02 90.35 27.10 90.76 Z" />
</g>
<g id="#fcfefdff">
<path fill="#fcfefd" opacity="1.00" d=" M 44.38 24.28 C 58.16 24.02 71.94 24.10 85.72 24.23 C 87.45 29.80 89.17 35.42 89.74 41.25 C 74.71 43.20 59.80 46.02 44.81 48.25 C 42.54 48.53 40.24 48.58 37.95 48.67 C 39.67 40.44 41.96 32.34 44.38 24.28 Z" />
<path fill="#fcfefd" opacity="1.00" d=" M 76.60 49.58 C 86.01 47.96 95.47 46.19 105.06 46.42 C 108.31 56.59 110.23 67.13 113.58 77.27 C 115.07 81.67 116.00 86.23 116.48 90.85 C 106.90 91.27 97.48 89.33 87.94 88.87 C 74.90 88.02 61.98 86.01 48.91 85.64 C 37.64 84.58 26.33 83.90 15.12 82.25 C 16.46 76.40 18.61 70.77 19.79 64.89 C 20.27 62.86 20.54 60.63 21.92 58.97 C 24.25 57.65 27.06 57.68 29.64 57.26 C 38.40 56.40 46.91 54.00 55.62 52.81 C 62.63 51.83 69.58 50.43 76.60 49.58 Z" />
<path fill="#fcfefd" opacity="1.00" d=" M 27.10 90.76 C 39.02 90.35 50.85 92.23 62.72 92.89 C 72.09 94.56 81.65 94.06 91.05 95.40 C 95.54 95.92 100.32 95.60 104.52 97.53 C 106.26 99.39 106.66 102.05 107.29 104.43 C 108.74 111.89 111.21 119.10 112.87 126.51 C 102.74 126.98 92.58 126.78 82.44 126.67 C 81.42 122.04 80.62 117.33 78.94 112.89 C 78.32 111.48 77.54 109.53 75.67 109.71 C 67.97 109.28 60.25 109.75 52.54 109.62 C 50.28 115.10 48.93 120.88 47.61 126.65 C 37.44 126.84 27.26 126.88 17.10 126.61 C 19.93 114.54 23.10 102.51 27.10 90.76 Z" />
</g>
</svg>
