<?xml version="1.0" encoding="UTF-8" ?>
<!DOCTYPE svg PUBLIC "-//W3C//DTD SVG 1.1//EN" "http://www.w3.org/Graphics/SVG/1.1/DTD/svg11.dtd">
<svg width="728pt" height="216pt" viewBox="0 0 728 216" version="1.1" xmlns="http://www.w3.org/2000/svg">
<g id="#ffffffff">
<path fill="#ffffff" opacity="1.00" d=" M 0.00 0.00 L 728.00 0.00 L 728.00 216.00 L 0.00 216.00 L 0.00 0.00 M 96.15 32.13 C 93.77 37.18 92.83 42.71 91.36 48.06 C 89.76 54.51 87.08 60.77 86.89 67.50 C 102.96 65.80 118.85 62.78 134.78 60.11 C 143.74 58.59 153.09 58.87 161.67 55.56 C 160.01 49.09 158.76 42.51 156.68 36.15 C 156.04 34.40 155.24 32.00 152.97 32.04 C 147.33 31.45 141.65 31.92 136.00 31.80 C 122.72 31.99 109.42 31.39 96.15 32.13 M 475.63 58.79 C 475.35 83.59 475.37 108.40 475.63 133.19 C 480.62 133.42 485.64 133.46 490.63 133.04 C 490.64 129.41 490.28 125.73 490.96 122.14 C 491.83 119.49 494.13 117.69 495.96 115.71 C 499.91 121.37 503.08 127.53 507.00 133.22 C 512.43 133.38 517.87 133.47 523.30 133.11 C 519.07 123.32 512.43 114.84 507.75 105.29 C 507.26 104.18 506.72 102.70 507.68 101.67 C 512.36 95.59 518.54 90.70 522.42 84.01 C 516.52 83.95 510.24 82.74 504.58 84.60 C 499.48 89.56 495.43 95.50 490.84 100.93 C 490.01 86.91 490.96 72.84 490.37 58.81 C 485.46 58.60 480.54 58.60 475.63 58.79 M 272.09 61.77 C 267.98 66.68 267.36 73.49 265.07 79.31 C 259.14 97.32 252.36 115.04 246.81 133.17 C 252.47 133.42 258.15 133.49 263.81 133.05 C 265.08 128.84 266.47 124.67 267.65 120.43 C 276.35 120.10 285.07 120.28 293.78 120.32 C 295.59 124.59 297.05 128.99 298.84 133.26 C 303.88 133.37 308.93 133.43 313.97 133.14 C 312.46 124.43 307.91 116.72 305.49 108.30 C 300.88 93.95 295.14 80.00 290.17 65.78 C 289.41 64.29 289.05 61.76 286.99 61.65 C 282.04 61.31 277.02 61.22 272.09 61.77 M 174.90 64.50 C 162.97 66.83 150.84 67.91 138.94 70.42 C 123.55 72.45 108.37 75.87 92.93 77.61 C 85.60 78.62 78.40 80.52 70.99 80.95 C 68.02 81.47 63.81 81.00 62.34 84.30 C 59.31 91.01 58.71 98.49 56.24 105.40 C 55.61 108.81 53.20 112.65 54.88 116.01 C 58.65 117.45 62.86 117.11 66.81 117.77 C 82.16 119.82 97.69 119.69 113.04 121.73 C 122.97 123.19 133.05 123.01 143.01 124.15 C 147.82 124.64 152.68 124.36 157.48 124.99 C 171.68 126.83 185.98 127.61 200.25 128.48 C 199.46 119.44 195.85 111.04 193.76 102.29 C 191.10 91.74 188.40 81.19 185.65 70.66 C 185.00 68.61 184.57 66.38 183.21 64.66 C 180.87 62.64 177.61 64.37 174.90 64.50 M 320.00 94.88 C 316.89 101.51 316.99 109.33 318.53 116.36 C 320.73 125.57 329.54 132.37 338.98 132.37 C 344.48 132.96 349.38 130.09 353.78 127.19 C 353.96 131.79 353.48 137.40 348.75 139.65 C 341.31 142.92 332.79 140.82 325.68 137.63 C 324.17 141.60 323.31 145.78 322.96 150.01 C 329.45 153.33 336.73 154.80 344.01 154.42 C 350.78 154.72 357.51 152.02 362.44 147.43 C 367.53 142.00 368.66 134.15 368.56 126.99 C 368.39 112.61 368.79 98.22 368.36 83.84 C 363.37 83.63 358.35 83.52 353.38 84.10 C 353.13 85.57 352.89 87.04 352.66 88.51 C 347.97 84.98 342.20 81.91 336.13 83.12 C 329.01 83.65 323.67 89.24 320.00 94.88 M 402.38 84.40 C 399.79 85.80 397.73 87.96 395.59 89.94 C 395.35 87.93 395.10 85.93 394.85 83.94 C 389.72 83.56 384.55 83.51 379.44 84.16 C 379.52 100.42 379.55 116.68 379.42 132.94 C 384.65 133.51 389.93 133.43 395.18 133.16 C 395.46 125.43 395.03 117.70 395.31 109.98 C 395.26 106.19 397.80 102.87 400.88 100.91 C 403.65 99.25 407.02 99.50 410.12 99.17 C 410.34 93.63 410.36 88.08 410.08 82.54 C 407.48 83.01 404.79 83.29 402.38 84.40 M 437.32 83.06 C 427.42 84.46 418.21 91.72 415.92 101.65 C 415.15 108.25 414.69 115.56 418.43 121.41 C 422.00 128.70 429.80 133.47 437.87 133.64 C 445.08 133.91 453.15 133.92 458.96 128.99 C 465.03 124.30 468.39 116.65 467.91 109.01 C 468.48 100.94 464.79 92.70 458.32 87.85 C 452.09 84.16 444.61 81.59 437.32 83.06 M 529.92 92.89 C 525.35 99.94 524.85 108.86 526.35 116.93 C 527.31 122.50 531.21 127.00 535.50 130.42 C 540.18 133.97 546.44 133.87 552.02 133.58 C 555.68 133.52 558.68 131.24 561.52 129.20 C 562.03 130.56 562.54 131.92 563.06 133.29 C 567.64 133.39 572.23 133.40 576.81 133.13 C 576.84 116.74 576.87 100.35 576.79 83.97 C 571.86 83.59 566.90 83.60 561.97 83.90 C 561.75 85.56 561.55 87.22 561.35 88.88 C 557.69 86.06 553.78 82.99 548.98 82.68 C 541.42 82.43 533.92 86.48 529.92 92.89 M 596.25 84.21 C 590.57 86.70 586.51 92.71 587.21 99.02 C 586.76 103.79 589.97 107.77 593.60 110.42 C 598.27 114.15 604.49 114.63 609.66 117.41 C 609.64 118.82 609.62 120.24 609.62 121.66 C 603.33 124.27 597.70 119.83 592.48 116.92 C 590.18 120.21 587.98 123.57 585.97 127.04 C 592.76 134.56 603.75 134.19 612.99 133.28 C 619.12 132.57 624.08 127.11 624.50 121.01 C 624.80 116.49 625.21 110.86 621.20 107.77 C 615.59 103.51 608.49 102.01 602.42 98.58 C 602.33 97.91 602.15 96.59 602.06 95.92 C 607.27 93.47 612.22 97.20 616.77 99.37 C 619.37 95.85 621.80 92.17 623.48 88.11 C 615.73 82.73 605.14 80.50 596.25 84.21 M 640.42 86.45 C 635.19 91.23 630.21 97.51 630.23 104.95 C 630.11 110.97 629.61 117.57 633.14 122.83 C 635.94 126.96 639.61 130.88 644.38 132.67 C 651.70 134.69 660.19 134.31 666.22 129.21 C 666.55 130.45 666.90 131.69 667.26 132.93 C 671.88 133.51 676.56 133.44 681.21 133.18 C 681.42 116.74 681.44 100.29 681.20 83.86 C 676.53 83.64 671.85 83.65 667.19 83.82 C 666.41 84.97 665.65 86.13 664.90 87.29 C 658.00 81.89 647.51 80.95 640.42 86.45 M 71.17 128.85 C 69.38 129.85 69.18 132.06 68.62 133.83 C 66.62 142.66 63.59 151.24 61.82 160.13 C 60.43 167.02 57.30 173.54 57.03 180.64 C 71.16 180.79 85.32 181.11 99.43 180.48 C 102.49 174.09 103.87 167.11 105.46 160.27 C 105.93 157.63 108.17 155.20 111.03 155.59 C 121.87 155.58 132.71 155.63 143.55 155.58 C 148.32 162.55 147.25 171.58 151.12 178.89 C 152.13 181.17 154.90 180.64 156.92 180.82 C 169.31 180.69 181.70 180.99 194.08 180.64 C 194.02 174.16 191.19 168.19 189.87 161.93 C 187.85 156.12 187.05 150.01 185.64 144.05 C 184.85 141.61 183.99 138.23 180.95 137.87 C 177.20 137.32 173.39 137.51 169.64 136.94 C 151.16 134.53 132.48 134.35 114.03 131.72 C 105.97 131.82 98.02 130.36 89.97 130.19 C 83.70 129.89 77.47 127.73 71.17 128.85 Z" />
<path fill="#ffffff" opacity="1.00" d=" M 279.71 82.21 C 280.05 82.37 280.75 82.69 281.09 82.85 C 282.63 90.96 287.41 98.16 287.96 106.48 C 282.98 106.46 277.99 106.46 273.01 106.43 C 274.37 98.13 278.20 90.49 279.71 82.21 Z" />
<path fill="#ffffff" opacity="1.00" d=" M 339.54 97.76 C 343.36 97.11 348.33 96.51 351.01 100.00 C 354.07 104.10 354.68 110.32 351.48 114.52 C 348.44 118.03 343.00 119.25 338.78 117.23 C 330.84 114.02 331.13 100.18 339.54 97.76 Z" />
<path fill="#ffffff" opacity="1.00" d=" M 437.57 97.81 C 441.39 97.03 446.32 96.54 449.09 99.92 C 454.55 105.32 453.19 115.60 446.48 119.36 C 443.38 120.68 439.72 120.52 436.66 119.20 C 429.09 114.85 429.26 101.27 437.57 97.81 Z" />
<path fill="#ffffff" opacity="1.00" d=" M 547.28 97.98 C 552.21 96.24 558.77 97.63 561.08 102.74 C 563.04 107.83 562.60 114.54 558.04 118.15 C 554.39 121.71 547.85 121.25 544.50 117.51 C 541.72 114.15 540.56 109.48 541.80 105.26 C 542.71 102.33 543.93 98.82 547.28 97.98 Z" />
<path fill="#ffffff" opacity="1.00" d=" M 651.29 98.07 C 655.56 96.55 661.14 97.12 664.02 100.96 C 668.35 106.79 666.46 116.41 660.07 119.93 C 652.29 123.21 643.95 114.85 645.50 107.07 C 646.22 103.58 647.40 99.17 651.29 98.07 Z" />
</g>
<g id="#017036ff">
<path fill="#017036" opacity="1.00" d=" M 96.15 32.13 C 109.42 31.39 122.72 31.99 136.00 31.80 C 141.65 31.92 147.33 31.45 152.97 32.04 C 155.24 32.00 156.04 34.40 156.68 36.15 C 158.76 42.51 160.01 49.09 161.67 55.56 C 153.09 58.87 143.74 58.59 134.78 60.11 C 118.85 62.78 102.96 65.80 86.89 67.50 C 87.08 60.77 89.76 54.51 91.36 48.06 C 92.83 42.71 93.77 37.18 96.15 32.13 Z" />
<path fill="#017036" opacity="1.00" d=" M 475.63 58.79 C 480.54 58.60 485.46 58.60 490.37 58.81 C 490.96 72.84 490.01 86.91 490.84 100.93 C 495.43 95.50 499.48 89.56 504.58 84.60 C 510.24 82.74 516.52 83.95 522.42 84.01 C 518.54 90.70 512.36 95.59 507.68 101.67 C 506.72 102.70 507.26 104.18 507.75 105.29 C 512.43 114.84 519.07 123.32 523.30 133.11 C 517.87 133.47 512.43 133.38 507.00 133.22 C 503.08 127.53 499.91 121.37 495.96 115.71 C 494.13 117.69 491.83 119.49 490.96 122.14 C 490.28 125.73 490.64 129.41 490.63 133.04 C 485.64 133.46 480.62 133.42 475.63 133.19 C 475.37 108.40 475.35 83.59 475.63 58.79 Z" />
<path fill="#017036" opacity="1.00" d=" M 272.09 61.77 C 277.02 61.22 282.04 61.31 286.99 61.65 C 289.05 61.76 289.41 64.29 290.17 65.78 C 295.14 80.00 300.88 93.95 305.49 108.30 C 307.91 116.72 312.46 124.43 313.97 133.14 C 308.93 133.43 303.88 133.37 298.84 133.26 C 297.05 128.99 295.59 124.59 293.78 120.32 C 285.07 120.28 276.35 120.10 267.65 120.43 C 266.47 124.67 265.08 128.84 263.81 133.05 C 258.15 133.49 252.47 133.42 246.81 133.17 C 252.36 115.04 259.14 97.32 265.07 79.31 C 267.36 73.49 267.98 66.68 272.09 61.77 M 279.71 82.21 C 278.20 90.49 274.37 98.13 273.01 106.43 C 277.99 106.46 282.98 106.46 287.96 106.48 C 287.41 98.16 282.63 90.96 281.09 82.85 C 280.75 82.69 280.05 82.37 279.71 82.21 Z" />
<path fill="#017036" opacity="1.00" d=" M 174.90 64.50 C 177.61 64.37 180.87 62.64 183.21 64.66 C 184.57 66.38 185.00 68.61 185.65 70.66 C 188.40 81.19 191.10 91.74 193.76 102.29 C 195.85 111.04 199.46 119.44 200.25 128.48 C 185.98 127.61 171.68 126.83 157.48 124.99 C 152.68 124.36 147.82 124.64 143.01 124.15 C 133.05 123.01 122.97 123.19 113.04 121.73 C 97.69 119.69 82.16 119.82 66.81 117.77 C 62.86 117.11 58.65 117.45 54.88 116.01 C 53.20 112.65 55.61 108.81 56.24 105.40 C 58.71 98.49 59.31 91.01 62.34 84.30 C 63.81 81.00 68.02 81.47 70.99 80.95 C 78.40 80.52 85.60 78.62 92.93 77.61 C 108.37 75.87 123.55 72.45 138.94 70.42 C 150.84 67.91 162.97 66.83 174.90 64.50 Z" />
<path fill="#017036" opacity="1.00" d=" M 320.00 94.88 C 323.67 89.24 329.01 83.65 336.13 83.12 C 342.20 81.91 347.97 84.98 352.66 88.51 C 352.89 87.04 353.13 85.57 353.38 84.10 C 358.35 83.52 363.37 83.63 368.36 83.84 C 368.79 98.22 368.39 112.61 368.56 126.99 C 368.66 134.15 367.53 142.00 362.44 147.43 C 357.51 152.02 350.78 154.72 344.01 154.42 C 336.73 154.80 329.45 153.33 322.96 150.01 C 323.31 145.78 324.17 141.60 325.68 137.63 C 332.79 140.82 341.31 142.92 348.75 139.65 C 353.48 137.40 353.96 131.79 353.78 127.19 C 349.38 130.09 344.48 132.96 338.98 132.37 C 329.54 132.37 320.73 125.57 318.53 116.36 C 316.99 109.33 316.89 101.51 320.00 94.88 M 339.54 97.76 C 331.13 100.18 330.84 114.02 338.78 117.23 C 343.00 119.25 348.44 118.03 351.48 114.52 C 354.68 110.32 354.07 104.10 351.01 100.00 C 348.33 96.51 343.36 97.11 339.54 97.76 Z" />
<path fill="#017036" opacity="1.00" d=" M 402.38 84.40 C 404.79 83.29 407.48 83.01 410.08 82.54 C 410.36 88.08 410.34 93.63 410.12 99.17 C 407.02 99.50 403.65 99.25 400.88 100.91 C 397.80 102.87 395.26 106.19 395.31 109.98 C 395.03 117.70 395.46 125.43 395.18 133.16 C 389.93 133.43 384.65 133.51 379.42 132.94 C 379.55 116.68 379.52 100.42 379.44 84.16 C 384.55 83.51 389.72 83.56 394.85 83.94 C 395.10 85.93 395.35 87.93 395.59 89.94 C 397.73 87.96 399.79 85.80 402.38 84.40 Z" />
<path fill="#017036" opacity="1.00" d=" M 437.32 83.06 C 444.61 81.59 452.09 84.16 458.32 87.85 C 464.79 92.70 468.48 100.94 467.91 109.01 C 468.39 116.65 465.03 124.30 458.96 128.99 C 453.15 133.92 445.08 133.91 437.87 133.64 C 429.80 133.47 422.00 128.70 418.43 121.41 C 414.69 115.56 415.15 108.25 415.92 101.65 C 418.21 91.72 427.42 84.46 437.32 83.06 M 437.57 97.81 C 429.26 101.27 429.09 114.85 436.66 119.20 C 439.72 120.52 443.38 120.68 446.48 119.36 C 453.19 115.60 454.55 105.32 449.09 99.92 C 446.32 96.54 441.39 97.03 437.57 97.81 Z" />
<path fill="#017036" opacity="1.00" d=" M 529.92 92.89 C 533.92 86.48 541.42 82.43 548.98 82.68 C 553.78 82.99 557.69 86.06 561.35 88.88 C 561.55 87.22 561.75 85.56 561.97 83.90 C 566.90 83.60 571.86 83.59 576.79 83.97 C 576.87 100.35 576.84 116.74 576.81 133.13 C 572.23 133.40 567.64 133.39 563.06 133.29 C 562.54 131.92 562.03 130.56 561.52 129.20 C 558.68 131.24 555.68 133.52 552.02 133.58 C 546.44 133.87 540.18 133.97 535.50 130.42 C 531.21 127.00 527.31 122.50 526.35 116.93 C 524.85 108.86 525.35 99.94 529.92 92.89 M 547.28 97.98 C 543.93 98.82 542.71 102.33 541.80 105.26 C 540.56 109.48 541.72 114.15 544.50 117.51 C 547.85 121.25 554.39 121.71 558.04 118.15 C 562.60 114.54 563.04 107.83 561.08 102.74 C 558.77 97.63 552.21 96.24 547.28 97.98 Z" />
<path fill="#017036" opacity="1.00" d=" M 596.25 84.21 C 605.14 80.50 615.73 82.73 623.48 88.11 C 621.80 92.17 619.37 95.85 616.77 99.37 C 612.22 97.20 607.27 93.47 602.06 95.92 C 602.15 96.59 602.33 97.91 602.42 98.58 C 608.49 102.01 615.59 103.51 621.20 107.77 C 625.21 110.86 624.80 116.49 624.50 121.01 C 624.08 127.11 619.12 132.57 612.99 133.28 C 603.75 134.19 592.76 134.56 585.97 127.04 C 587.98 123.57 590.18 120.21 592.48 116.92 C 597.70 119.83 603.33 124.27 609.62 121.66 C 609.62 120.24 609.64 118.82 609.66 117.41 C 604.49 114.63 598.27 114.15 593.60 110.42 C 589.97 107.77 586.76 103.79 587.21 99.02 C 586.51 92.71 590.57 86.70 596.25 84.21 Z" />
<path fill="#017036" opacity="1.00" d=" M 640.42 86.45 C 647.51 80.95 658.00 81.89 664.90 87.29 C 665.65 86.13 666.41 84.97 667.19 83.82 C 671.85 83.65 676.53 83.64 681.20 83.86 C 681.44 100.29 681.42 116.74 681.21 133.18 C 676.56 133.44 671.88 133.51 667.26 132.93 C 666.90 131.69 666.55 130.45 666.22 129.21 C 660.19 134.31 651.70 134.69 644.38 132.67 C 639.61 130.88 635.94 126.96 633.14 122.83 C 629.61 117.57 630.11 110.97 630.23 104.95 C 630.21 97.51 635.19 91.23 640.42 86.45 M 651.29 98.07 C 647.40 99.17 646.22 103.58 645.50 107.07 C 643.95 114.85 652.29 123.21 660.07 119.93 C 666.46 116.41 668.35 106.79 664.02 100.96 C 661.14 97.12 655.56 96.55 651.29 98.07 Z" />
<path fill="#017036" opacity="1.00" d=" M 71.17 128.85 C 77.47 127.73 83.70 129.89 89.97 130.19 C 98.02 130.36 105.97 131.82 114.03 131.72 C 132.48 134.35 151.16 134.53 169.64 136.94 C 173.39 137.51 177.20 137.32 180.95 137.87 C 183.99 138.23 184.85 141.61 185.64 144.05 C 187.05 150.01 187.85 156.12 189.87 161.93 C 191.19 168.19 194.02 174.16 194.08 180.64 C 181.70 180.99 169.31 180.69 156.92 180.82 C 154.90 180.64 152.13 181.17 151.12 178.89 C 147.25 171.58 148.32 162.55 143.55 155.58 C 132.71 155.63 121.87 155.58 111.03 155.59 C 108.17 155.20 105.93 157.63 105.46 160.27 C 103.87 167.11 102.49 174.09 99.43 180.48 C 85.32 181.11 71.16 180.79 57.03 180.64 C 57.30 173.54 60.43 167.02 61.82 160.13 C 63.59 151.24 66.62 142.66 68.62 133.83 C 69.18 132.06 69.38 129.85 71.17 128.85 Z" />
</g>
</svg>
